General

Format                         : MPEG-4
Format profile                 : Base Media
Codec ID                       : isom
File size                      : 56.8 MiB
Duration                       : 3mn 21s
Overall bit rate mode          : Variable
Overall bit rate               : 2 365 Kbps
Encoded date                   : UTC 2012-08-25 06:19:42
Tagged date                    : UTC 2012-08-25 06:19:42

Video
ID                             : 1
Format                         : AVC
Format/Info                    : Advanced Video Codec
Format profile                 : High@L3.0
Format settings, CABAC         : Yes
Format settings, ReFrames      : 2 frames
Codec ID                       : avc1
Codec ID/Info                  : Advanced Video Coding
Duration                       : 3mn 21s
Bit rate                       : 2 191 Kbps
Maximum bit rate               : 4 196 Kbps
Width                          : 720 pixels
Height                         : 480 pixels
Display aspect ratio           : 16:9
Original display aspect ratio  : 16:9
Frame rate mode                : Constant
Frame rate                     : 23.976 fps
Standard                       : NTSC
Color space                    : YUV
Chroma subsampling             : 4:2:0
Bit depth                      : 8 bits
Scan type                      : Progressive
Bits/(Pixel*Frame)             : 0.264
Stream size                    : 50.8 MiB (89%)
Writing library                : x264 core 119 r2106 07efeb4


Audio
ID                             : 2
Format                         : MPEG Audio
Format version                 : Version 1
Format profile                 : Layer 3
Mode                           : Joint stereo
Mode extension                 : MS Stereo
Codec ID                       : 6B
Duration                       : 3mn 21s
Bit rate mode                  : Variable
Bit rate                       : 242 Kbps
Maximum bit rate               : 263 Kbps
Channel(s)                     : 2 channels
Sampling rate                  : 44.1 KHz
Compression mode               : Lossy
Delay relative to video        : -833ms
Stream size                    : 5.82 MiB (10%)